<svg width="1024" height="1024" viewBox="0 0 1024 1024" fill="none" xmlns="http://www.w3.org/2000/svg">
<path d="M796.293 591.352C817.311 554.776 864.021 542.152 900.623 563.156C937.223 584.16 949.855 630.84 928.838 667.418L836.146 828.731C770.053 943.757 604.013 943.756 537.919 828.731L528.068 811.591C520.725 798.81 502.276 798.81 494.932 811.591L485.081 828.731C418.987 943.757 252.947 943.756 186.854 828.731L94.1621 667.418C73.145 630.84 85.777 584.16 122.377 563.156C158.979 542.152 205.689 554.776 226.707 591.352L319.399 752.67C326.743 765.451 345.192 765.451 352.535 752.67L362.387 735.53C428.48 620.505 594.52 620.504 660.613 735.53L670.465 752.67C677.808 765.451 696.257 765.451 703.601 752.67L796.293 591.352Z" fill="#E6E6E6" style="fill:#E6E6E6;fill:color(display-p3 0.9020 0.9020 0.9020);fill-opacity:1;"/>
<path d="M600.04 347.5C600.04 299.882 561.519 261.28 514 261.28C466.481 261.28 427.96 299.882 427.96 347.5C427.96 395.118 466.481 433.72 514 433.72V587C382.004 587 275 479.772 275 347.5C275 215.228 382.004 108 514 108C645.996 108 753 215.228 753 347.5C753 479.772 645.996 587 514 587V433.72C561.519 433.72 600.04 395.118 600.04 347.5Z" fill="#E6E6E6" style="fill:#E6E6E6;fill:color(display-p3 0.9020 0.9020 0.9020);fill-opacity:1;"/>
</svg>
